{
    "accessors" : [
        {
            "bufferView" : 0,
            "componentType" : 5126,
            "count" : 4796,
            "max" : [
                0.7870967984199524,
                0.25,
                0.33025458455085754
            ],
            "min" : [
                -0.7830908894538879,
                -0.25,
                -1.432085394859314
            ],
            "type" : "VEC3"
        },
        {
            "bufferView" : 1,
            "componentType" : 5126,
            "count" : 4796,
            "type" : "VEC3"
        },
        {
            "bufferView" : 2,
            "componentType" : 5123,
            "count" : 25296,
            "type" : "SCALAR"
        },
        {
            "bufferView" : 3,
            "componentType" : 5126,
            "count" : 24,
            "max" : [
                1,
                1,
                1
            ],
            "min" : [
                -1,
                -1,
                -1
            ],
            "type" : "VEC3"
        },
        {
            "bufferView" : 4,
            "componentType" : 5126,
            "count" : 24,
            "type" : "VEC3"
        },
        {
            "bufferView" : 5,
            "componentType" : 5121,
            "count" : 36,
            "type" : "SCALAR"
        },
        {
            "bufferView" : 6,
            "componentType" : 5126,
            "count" : 24,
            "max" : [
                1,
                1,
                1
            ],
            "min" : [
                -1,
                -1,
                -1
            ],
            "type" : "VEC3"
        },
        {
            "bufferView" : 7,
            "componentType" : 5126,
            "count" : 24,
            "type" : "VEC3"
        },
        {
            "bufferView" : 8,
            "componentType" : 5121,
            "count" : 36,
            "type" : "SCALAR"
        },
        {
            "bufferView" : 9,
            "componentType" : 5126,
            "count" : 24,
            "max" : [
                0.5000001788139343,
                0.3645382523536682,
                0.5000003576278687
            ],
            "min" : [
                -0.5000002384185791,
                -0.6354617476463318,
                -0.5000001192092896
            ],
            "type" : "VEC3"
        },
        {
            "bufferView" : 10,
            "componentType" : 5126,
            "count" : 24,
            "type" : "VEC3"
        },
        {
            "bufferView" : 11,
            "componentType" : 5121,
            "count" : 36,
            "type" : "SCALAR"
        }
    ],
    "asset" : {
        "generator" : "Khronos Blender glTF 2.0 I/O (Exp)",
        "version" : "2.0"
    },
    "bufferViews" : [
        {
            "buffer" : 0,
            "byteLength" : 57552,
            "byteOffset" : 0
        },
        {
            "buffer" : 0,
            "byteLength" : 57552,
            "byteOffset" : 57552
        },
        {
            "buffer" : 0,
            "byteLength" : 50592,
            "byteOffset" : 115104
        },
        {
            "buffer" : 0,
            "byteLength" : 288,
            "byteOffset" : 165696
        },
        {
            "buffer" : 0,
            "byteLength" : 288,
            "byteOffset" : 165984
        },
        {
            "buffer" : 0,
            "byteLength" : 36,
            "byteOffset" : 166272
        },
        {
            "buffer" : 0,
            "byteLength" : 288,
            "byteOffset" : 166308
        },
        {
            "buffer" : 0,
            "byteLength" : 288,
            "byteOffset" : 166596
        },
        {
            "buffer" : 0,
            "byteLength" : 36,
            "byteOffset" : 166884
        },
        {
            "buffer" : 0,
            "byteLength" : 288,
            "byteOffset" : 166920
        },
        {
            "buffer" : 0,
            "byteLength" : 288,
            "byteOffset" : 167208
        },
        {
            "buffer" : 0,
            "byteLength" : 36,
            "byteOffset" : 167496
        }
    ],
    "buffers" : [
        {
            "byteLength" : 167532,
            "uri" : "BlenderTest1.bin"
        }
    ],
    "cameras" : [
        {
            "name" : "Camera",
            "perspective" : {
                "yfov" : 0.5033799372418416,
                "zfar" : 100,
                "znear" : 0.10000000149011612
            },
            "type" : "perspective"
        }
    ],
    "extensions" : {},
    "materials" : [
        {
            "pbrMetallicRoughness" : {}
        },
        {
            "pbrMetallicRoughness" : {}
        }
    ],
    "meshes" : [
        {
            "name" : "CUText.002",
            "primitives" : [
                {
                    "attributes" : {
                        "NORMAL" : 1,
                        "POSITION" : 0
                    },
                    "indices" : 2
                }
            ]
        },
        {
            "name" : "Cube.002",
            "primitives" : [
                {
                    "attributes" : {
                        "NORMAL" : 4,
                        "POSITION" : 3
                    },
                    "indices" : 5,
                    "material" : 0
                }
            ]
        },
        {
            "name" : "Cube.001",
            "primitives" : [
                {
                    "attributes" : {
                        "NORMAL" : 7,
                        "POSITION" : 6
                    },
                    "indices" : 8
                }
            ]
        },
        {
            "name" : "Cube",
            "primitives" : [
                {
                    "attributes" : {
                        "NORMAL" : 10,
                        "POSITION" : 9
                    },
                    "indices" : 11,
                    "material" : 1
                }
            ]
        }
    ],
    "nodes" : [
        {
            "mesh" : 0,
            "name" : "Text1.002",
            "translation" : [
                -0.0013599395751953125,
                0.8766483068466187,
                0.5795251131057739
            ]
        },
        {
            "children" : [
                0
            ],
            "mesh" : 1,
            "name" : "CubeQ001",
            "translation" : [
                -6,
                0,
                -1
            ]
        },
        {
            "name" : "Text1",
            "translation" : [
                -0.0013599395751953125,
                0.8766483068466187,
                0.5795251131057739
            ]
        },
        {
            "children" : [
                2
            ],
            "mesh" : 2,
            "name" : "CubeQ",
            "translation" : [
                -2,
                0,
                -1
            ]
        },
        {
            "mesh" : 3,
            "name" : "ShapeRG"
        },
        {
            "name" : "LampRG",
            "rotation" : [
                0.16907575726509094,
                0.7558802962303162,
                -0.27217137813568115,
                0.570947527885437
            ],
            "scale" : [
                1,
                1,
                0.9999999403953552
            ],
            "translation" : [
                1.0683276653289795,
                1.4173566102981567,
                1.4560341835021973
            ]
        },
        {
            "camera" : 0,
            "name" : "CameraRG",
            "rotation" : [
                0.483536034822464,
                0.33687159419059753,
                -0.20870360732078552,
                0.7804827094078064
            ],
            "translation" : [
                7.481131553649902,
                5.34366512298584,
                6.5076398849487305
            ]
        }
    ],
    "scene" : 0,
    "scenes" : [
        {
            "name" : "SceneRG",
            "nodes" : [
                1,
                3,
                4,
                5,
                6
            ]
        }
    ]
}
