{"asset":{"generator":"3D Builder","version":"2.0"},"scene":0,"scenes":[{"nodes":[0,1]}],"nodes":[{"mesh":0,"matrix":[0.99999994039535522,0,0,0,0,-1.1920928244535389E-7,-0.99999982118606567,0,0,0.99999982118606567,-1.1920928244535389E-7,0,0.00027894219965673983,2.4242488572134846E-10,0.0020336071029305458,1]},{"mesh":1,"matrix":[0.99999994039535522,0,0,0,0,-1.1920928244535389E-7,-0.99999982118606567,0,0,0.99999982118606567,-1.1920928244535389E-7,0,-0.062998004257678986,0.043797146528959274,0.062997989356517792,1]}],"meshes":[{"primitives":[{"attributes":{"POSITION":0},"mode":4,"indices":1,"material":0}]},{"primitives":[{"attributes":{"POSITION":2},"mode":4,"indices":3,"material":1}]}],"materials":[{"name":"Green","pbrMetallicRoughness":{"baseColorFactor":[0.015208514407277107,0.49693304300308228,0.072271861135959625,1],"metallicFactor":0,"roughnessFactor":1}},{"name":"Yellow","pbrMetallicRoughness":{"baseColorFactor":[0.99110221862792969,0.87962257862091064,0,1],"metallicFactor":0,"roughnessFactor":1}}],"accessors":[{"bufferView":0,"byteOffset":0,"count":50,"componentType":5126,"type":"VEC3","min":[-0.019999001175165176,-0.020000001415610313,0],"max":[0.019997002556920052,0.020000001415610313,0.039996005594730377]},{"bufferView":1,"byteOffset":0,"count":288,"componentType":5125,"type":"SCALAR"},{"bufferView":2,"byteOffset":0,"count":5,"componentType":5126,"type":"VEC3","min":[0.042998004704713821,0.042998004704713821,0],"max":[0.082998007535934448,0.082998007535934448,0.039998002350330353]},{"bufferView":3,"byteOffset":0,"count":18,"componentType":5125,"type":"SCALAR"}],"bufferViews":[{"buffer":0,"byteOffset":0,"byteLength":600,"byteStride":12,"target":34962},{"buffer":0,"byteOffset":600,"byteLength":1152,"target":34963},{"buffer":0,"byteOffset":1752,"byteLength":60,"byteStride":12,"target":34962},{"buffer":0,"byteOffset":1812,"byteLength":72,"target":34963}],"buffers":[{"byteLength":1884,"uri":"Box.bin"}]}