{
    "accessors" : [
        {
            "bufferView" : 0,
            "componentType" : 5126,
            "count" : 1888,
            "max" : [
                0.4920002222061157,
                1.149999976158142,
                1.1500000953674316
            ],
            "min" : [
                -0.4000001847743988,
                -1.1500000953674316,
                -1.1500004529953003
            ],
            "type" : "VEC3"
        },
        {
            "bufferView" : 1,
            "componentType" : 5126,
            "count" : 1888,
            "type" : "VEC3"
        },
        {
            "bufferView" : 2,
            "componentType" : 5123,
            "count" : 9744,
            "type" : "SCALAR"
        },
        {
            "bufferView" : 3,
            "componentType" : 5126,
            "count" : 24,
            "max" : [
                1,
                1,
                1
            ],
            "min" : [
                -1,
                -1,
                -1
            ],
            "type" : "VEC3"
        },
        {
            "bufferView" : 4,
            "componentType" : 5126,
            "count" : 24,
            "type" : "VEC3"
        },
        {
            "bufferView" : 5,
            "componentType" : 5121,
            "count" : 36,
            "type" : "SCALAR"
        },
        {
            "bufferView" : 6,
            "componentType" : 5126,
            "count" : 19312,
            "max" : [
                0.7870967984199524,
                1.149999976158142,
                1.1500000953674316
            ],
            "min" : [
                -0.7830913066864014,
                -1.1500000953674316,
                -1.1500005722045898
            ],
            "type" : "VEC3"
        },
        {
            "bufferView" : 7,
            "componentType" : 5126,
            "count" : 19312,
            "type" : "VEC3"
        },
        {
            "bufferView" : 8,
            "componentType" : 5123,
            "count" : 101184,
            "type" : "SCALAR"
        },
        {
            "bufferView" : 9,
            "componentType" : 5126,
            "count" : 24,
            "max" : [
                1,
                1,
                1
            ],
            "min" : [
                -1,
                -1,
                -1
            ],
            "type" : "VEC3"
        },
        {
            "bufferView" : 10,
            "componentType" : 5126,
            "count" : 24,
            "type" : "VEC3"
        },
        {
            "bufferView" : 11,
            "componentType" : 5121,
            "count" : 36,
            "type" : "SCALAR"
        },
        {
            "bufferView" : 12,
            "componentType" : 5126,
            "count" : 15021,
            "max" : [
                0.7018781900405884,
                1.1500002145767212,
                1.1500003337860107
            ],
            "min" : [
                -0.5,
                -1.1500003337860107,
                -1.1500003337860107
            ],
            "type" : "VEC3"
        },
        {
            "bufferView" : 13,
            "componentType" : 5126,
            "count" : 15021,
            "type" : "VEC3"
        },
        {
            "bufferView" : 14,
            "componentType" : 5123,
            "count" : 76704,
            "type" : "SCALAR"
        },
        {
            "bufferView" : 15,
            "componentType" : 5126,
            "count" : 24,
            "max" : [
                1,
                1,
                1
            ],
            "min" : [
                -1,
                -1,
                -1
            ],
            "type" : "VEC3"
        },
        {
            "bufferView" : 16,
            "componentType" : 5126,
            "count" : 24,
            "type" : "VEC3"
        },
        {
            "bufferView" : 17,
            "componentType" : 5121,
            "count" : 36,
            "type" : "SCALAR"
        },
        {
            "bufferView" : 18,
            "componentType" : 5126,
            "count" : 1259,
            "max" : [
                0.6200002431869507,
                1.149999976158142,
                1.1500000953674316
            ],
            "min" : [
                -0.6200003027915955,
                -1.1500000953674316,
                -1.1500004529953003
            ],
            "type" : "VEC3"
        },
        {
            "bufferView" : 19,
            "componentType" : 5126,
            "count" : 1259,
            "type" : "VEC3"
        },
        {
            "bufferView" : 20,
            "componentType" : 5123,
            "count" : 6480,
            "type" : "SCALAR"
        },
        {
            "bufferView" : 21,
            "componentType" : 5126,
            "count" : 24,
            "max" : [
                1,
                1,
                1
            ],
            "min" : [
                -1,
                -1,
                -1
            ],
            "type" : "VEC3"
        },
        {
            "bufferView" : 22,
            "componentType" : 5126,
            "count" : 24,
            "type" : "VEC3"
        },
        {
            "bufferView" : 23,
            "componentType" : 5121,
            "count" : 36,
            "type" : "SCALAR"
        },
        {
            "bufferView" : 24,
            "componentType" : 5126,
            "count" : 2101,
            "max" : [
                0.9580309987068176,
                1.149999976158142,
                1.1503267288208008
            ],
            "min" : [
                -0.9596317410469055,
                -1.1500004529953003,
                -1.1496737003326416
            ],
            "type" : "VEC3"
        },
        {
            "bufferView" : 25,
            "componentType" : 5126,
            "count" : 2101,
            "type" : "VEC3"
        },
        {
            "bufferView" : 26,
            "componentType" : 5123,
            "count" : 10560,
            "type" : "SCALAR"
        },
        {
            "bufferView" : 27,
            "componentType" : 5126,
            "count" : 24,
            "max" : [
                1,
                1,
                1
            ],
            "min" : [
                -1,
                -1,
                -1
            ],
            "type" : "VEC3"
        },
        {
            "bufferView" : 28,
            "componentType" : 5126,
            "count" : 24,
            "type" : "VEC3"
        },
        {
            "bufferView" : 29,
            "componentType" : 5121,
            "count" : 36,
            "type" : "SCALAR"
        }
    ],
    "asset" : {
        "generator" : "Khronos Blender glTF 2.0 I/O (Exp)",
        "version" : "2.0"
    },
    "bufferViews" : [
        {
            "buffer" : 0,
            "byteLength" : 22656,
            "byteOffset" : 0
        },
        {
            "buffer" : 0,
            "byteLength" : 22656,
            "byteOffset" : 22656
        },
        {
            "buffer" : 0,
            "byteLength" : 19488,
            "byteOffset" : 45312
        },
        {
            "buffer" : 0,
            "byteLength" : 288,
            "byteOffset" : 64800
        },
        {
            "buffer" : 0,
            "byteLength" : 288,
            "byteOffset" : 65088
        },
        {
            "buffer" : 0,
            "byteLength" : 36,
            "byteOffset" : 65376
        },
        {
            "buffer" : 0,
            "byteLength" : 231744,
            "byteOffset" : 65412
        },
        {
            "buffer" : 0,
            "byteLength" : 231744,
            "byteOffset" : 297156
        },
        {
            "buffer" : 0,
            "byteLength" : 202368,
            "byteOffset" : 528900
        },
        {
            "buffer" : 0,
            "byteLength" : 288,
            "byteOffset" : 731268
        },
        {
            "buffer" : 0,
            "byteLength" : 288,
            "byteOffset" : 731556
        },
        {
            "buffer" : 0,
            "byteLength" : 36,
            "byteOffset" : 731844
        },
        {
            "buffer" : 0,
            "byteLength" : 180252,
            "byteOffset" : 731880
        },
        {
            "buffer" : 0,
            "byteLength" : 180252,
            "byteOffset" : 912132
        },
        {
            "buffer" : 0,
            "byteLength" : 153408,
            "byteOffset" : 1092384
        },
        {
            "buffer" : 0,
            "byteLength" : 288,
            "byteOffset" : 1245792
        },
        {
            "buffer" : 0,
            "byteLength" : 288,
            "byteOffset" : 1246080
        },
        {
            "buffer" : 0,
            "byteLength" : 36,
            "byteOffset" : 1246368
        },
        {
            "buffer" : 0,
            "byteLength" : 15108,
            "byteOffset" : 1246404
        },
        {
            "buffer" : 0,
            "byteLength" : 15108,
            "byteOffset" : 1261512
        },
        {
            "buffer" : 0,
            "byteLength" : 12960,
            "byteOffset" : 1276620
        },
        {
            "buffer" : 0,
            "byteLength" : 288,
            "byteOffset" : 1289580
        },
        {
            "buffer" : 0,
            "byteLength" : 288,
            "byteOffset" : 1289868
        },
        {
            "buffer" : 0,
            "byteLength" : 36,
            "byteOffset" : 1290156
        },
        {
            "buffer" : 0,
            "byteLength" : 25212,
            "byteOffset" : 1290192
        },
        {
            "buffer" : 0,
            "byteLength" : 25212,
            "byteOffset" : 1315404
        },
        {
            "buffer" : 0,
            "byteLength" : 21120,
            "byteOffset" : 1340616
        },
        {
            "buffer" : 0,
            "byteLength" : 288,
            "byteOffset" : 1361736
        },
        {
            "buffer" : 0,
            "byteLength" : 288,
            "byteOffset" : 1362024
        },
        {
            "buffer" : 0,
            "byteLength" : 36,
            "byteOffset" : 1362312
        }
    ],
    "buffers" : [
        {
            "byteLength" : 1362348,
            "uri" : "QWERT_Cubes1.bin"
        }
    ],
    "cameras" : [
        {
            "name" : "Camera",
            "perspective" : {
                "yfov" : 0.5033799372418416,
                "zfar" : 100,
                "znear" : 0.10000000149011612
            },
            "type" : "perspective"
        }
    ],
    "extensions" : {},
    "materials" : [
        {
            "pbrMetallicRoughness" : {}
        }
    ],
    "meshes" : [
        {
            "name" : "E4Mesh",
            "primitives" : [
                {
                    "attributes" : {
                        "NORMAL" : 1,
                        "POSITION" : 0
                    },
                    "indices" : 2,
                    "material" : 0
                }
            ]
        },
        {
            "name" : "CubeMeshE",
            "primitives" : [
                {
                    "attributes" : {
                        "NORMAL" : 4,
                        "POSITION" : 3
                    },
                    "indices" : 5,
                    "material" : 0
                }
            ]
        },
        {
            "name" : "Q4Mesh",
            "primitives" : [
                {
                    "attributes" : {
                        "NORMAL" : 7,
                        "POSITION" : 6
                    },
                    "indices" : 8,
                    "material" : 0
                }
            ]
        },
        {
            "name" : "CubeMeshQ",
            "primitives" : [
                {
                    "attributes" : {
                        "NORMAL" : 10,
                        "POSITION" : 9
                    },
                    "indices" : 11,
                    "material" : 0
                }
            ]
        },
        {
            "name" : "4MeshR",
            "primitives" : [
                {
                    "attributes" : {
                        "NORMAL" : 13,
                        "POSITION" : 12
                    },
                    "indices" : 14,
                    "material" : 0
                }
            ]
        },
        {
            "name" : "CubeMeshR",
            "primitives" : [
                {
                    "attributes" : {
                        "NORMAL" : 16,
                        "POSITION" : 15
                    },
                    "indices" : 17,
                    "material" : 0
                }
            ]
        },
        {
            "name" : "4MeshT",
            "primitives" : [
                {
                    "attributes" : {
                        "NORMAL" : 19,
                        "POSITION" : 18
                    },
                    "indices" : 20,
                    "material" : 0
                }
            ]
        },
        {
            "name" : "CubeMeshT",
            "primitives" : [
                {
                    "attributes" : {
                        "NORMAL" : 22,
                        "POSITION" : 21
                    },
                    "indices" : 23,
                    "material" : 0
                }
            ]
        },
        {
            "name" : "W",
            "primitives" : [
                {
                    "attributes" : {
                        "NORMAL" : 25,
                        "POSITION" : 24
                    },
                    "indices" : 26,
                    "material" : 0
                }
            ]
        },
        {
            "name" : "CubeMeshW",
            "primitives" : [
                {
                    "attributes" : {
                        "NORMAL" : 28,
                        "POSITION" : 27
                    },
                    "indices" : 29,
                    "material" : 0
                }
            ]
        }
    ],
    "nodes" : [
        {
            "name" : "LampRG.001",
            "rotation" : [
                0.16907575726509094,
                0.7558802962303162,
                -0.27217137813568115,
                0.570947527885437
            ],
            "scale" : [
                1,
                1,
                0.9999999403953552
            ],
            "translation" : [
                10.600311279296875,
                -2.664823532104492,
                6.064822196960449
            ]
        },
        {
            "mesh" : 0,
            "name" : "Es",
            "rotation" : [
                -0.7071068286895752,
                6.181723932741079e-08,
                6.181724643283815e-08,
                0.7071068286895752
            ]
        },
        {
            "children" : [
                1
            ],
            "mesh" : 1,
            "name" : "CubeE"
        },
        {
            "mesh" : 2,
            "name" : "Qs",
            "rotation" : [
                -0.7071068286895752,
                6.181723932741079e-08,
                6.181724643283815e-08,
                0.7071068286895752
            ]
        },
        {
            "children" : [
                3
            ],
            "mesh" : 3,
            "name" : "CubeQ",
            "translation" : [
                -6,
                0,
                0
            ]
        },
        {
            "mesh" : 4,
            "name" : "Rs",
            "rotation" : [
                1,
                0,
                0,
                -1.6292068494294654e-07
            ]
        },
        {
            "children" : [
                5
            ],
            "mesh" : 5,
            "name" : "CubeR",
            "translation" : [
                3,
                0,
                0
            ]
        },
        {
            "mesh" : 6,
            "name" : "Ts",
            "rotation" : [
                -0.7071068286895752,
                6.181723932741079e-08,
                6.181724643283815e-08,
                0.7071068286895752
            ]
        },
        {
            "children" : [
                7
            ],
            "mesh" : 7,
            "name" : "CubeT",
            "translation" : [
                6,
                0,
                0
            ]
        },
        {
            "mesh" : 8,
            "name" : "Ws",
            "rotation" : [
                1,
                0,
                0,
                -1.6292068494294654e-07
            ],
            "translation" : [
                2.384185791015625e-07,
                -1.7881393432617188e-07,
                0.00032651424407958984
            ]
        },
        {
            "children" : [
                9
            ],
            "mesh" : 9,
            "name" : "CubeW",
            "translation" : [
                -3,
                0,
                0
            ]
        },
        {
            "children" : [
                2,
                4,
                6,
                8,
                10
            ],
            "name" : "Original_Empty.001"
        },
        {
            "name" : "LampRG",
            "rotation" : [
                0.16907575726509094,
                0.7558802962303162,
                -0.27217137813568115,
                0.570947527885437
            ],
            "scale" : [
                1,
                1,
                0.9999999403953552
            ],
            "translation" : [
                -8.188497543334961,
                3.6095051765441895,
                6.899516582489014
            ]
        },
        {
            "camera" : 0,
            "name" : "CameraRG",
            "rotation" : [
                0.7071068286895752,
                0,
                0,
                0.7071068286895752
            ],
            "translation" : [
                0,
                0,
                18
            ]
        }
    ],
    "scene" : 0,
    "scenes" : [
        {
            "name" : "SceneRG",
            "nodes" : [
                0,
                11,
                12,
                13
            ]
        }
    ]
}
